<svg xmlns="http://www.w3.org/2000/svg" xmlns:xlink="http://www.w3.org/1999/xlink" fill="none" height="44" viewBox="0 0 200 44" width="200"><clipPath id="a"><path d="m0 .5h200v43h-200z"/></clipPath><mask id="b" height="44" maskUnits="userSpaceOnUse" width="200" x="0" y="0"><path d="m200 .5h-200v43h200z" fill="#fff"/></mask><g clip-path="url(#a)"><path d="m17.8131 30.1227h-2.5435l-12.23481-29.6227h2.66522l10.83909 26.7589 10.8435-26.7589 1.8044 2.0726z" fill="#67bd4b"/><g fill="#fff"><path d="m83.7044 30.1227h-2.674l-3.4043-8.1743h-15.4826l-3.4 8.1743h-2.6739l12.4695-29.6227h2.7zm-20.7609-10.2856h13.8869l-6.9434-16.6324z"/><path d="m112.887 30.1227h-3.083l-17.9083-25.4173v25.4173h-2.5479v-29.6227h3.0783l17.9169 25.4302v-25.4302h2.544z"/><path d="m130.309 13.7354 12.178 16.3873h-3.161l-10.626-14.448-5.309 6.321v8.127h-2.504v-29.6227h2.504v17.8278l14.839-17.8278h3.153z"/><path d="m167.209 2.6113h-16.166v11.1843l10.783.0516v1.8533l-10.783.2064v12.1045h16.166v2.1113h-18.709v-29.6227h18.709z"/><g mask="url(#b)"><path d="m196.965 30.1227h-3.082l-17.913-25.4173v25.4173h-2.544v-29.6227h3.074l17.922 25.4302v-25.4302h2.543z"/><path d="m42.9261 18.7494c4.7696-.7095 7.4435-4.1452 7.4435-9.0085 0-5.4524-3.4957-9.236401-9.5044-9.236401h-13.4826l1.8044 2.072601h11.4391c4.5609 0 7.1957 2.8165 7.1957 7.1638s-2.587 7.1896-7.1957 7.1896h-9.5043v2.0683h9.1782l8.1261 11.1241h3.013l-8.5086-11.3778z"/></g><path d="m47.0478 35.6224h-43.56953v7.8776h43.56953z"/><path d="m48.4521 35.6224v7.8776h2.8131v-7.8776z"/></g><path d="m65.6087 43.3581v-7.6239h-1.0043v3.3712h-4.1913v-3.3712h-.9913v7.6239h.9913v-3.4056h4.1913v3.4056zm7.3478 0v-.8471h-3.5304v-2.5585h2.5739v-.8471h-2.5739v-2.5241h3.0957v-.8471h-4.0827v7.6239h4.5218zm8.087-7.1982c-.4957-.2752-1.2565-.5031-2.2609-.5031-1.9695 0-4.0478 1.3975-4.0478 3.8829s2.0565 3.8829 4.0609 3.8829c.9565 0 1.5608-.1419 2.0174-.3956l.0956-.8729c-.4956.2881-1.1348.4644-2.0174.4644-1.6565 0-3.2043-1.1137-3.2043-3.0702s1.5695-3.0702 3.2043-3.0702c.7957 0 1.5609.2494 1.9696.516l.1826-.8385zm8.7 7.1982v-7.6239h-1.0044v3.3712h-4.1913v-3.3712h-.9913v7.6239h.9913v-3.4056h4.1913v3.4056zm8.2087-6.7768v-.8471h-6.1174v.8471h2.5609v6.7768h.9913v-6.7768h2.5608zm12.4088 6.7768-3.226-7.7314h-.361l-3.226 7.7314h.978l.848-2.0554h3.13l.857 2.0554h1.004zm-2.2-2.8466h-2.452l.848-2.1027c.121-.2967.278-.6923.373-1.0535h.027c.108.3569.243.7525.36 1.0535l.848 2.1027zm10.782 2.8466-3.226-7.7314h-.36l-3.227 7.7314h.979l.848-2.0554h3.13l.856 2.0554h1.005zm-2.2-2.8466h-2.452l.848-2.1027c.122-.2967.278-.6923.374-1.0535h.022c.109.3569.243.7525.361 1.0535zm11.3 2.9885v-7.7701h-.991v3.8356c0 .5977 0 1.2685.026 1.9006l-.026.0129c-.495-.6106-1.195-1.3975-1.678-1.935l-3.444-3.8141h-.687v7.6239h.992v-4.0162c0-.6321 0-1.3158-.022-2.0081l.022-.0129c.53.6321 1.222 1.4362 1.826 2.1027l3.7 4.0764h.291zm12.314-.1419-3.431-3.8958 3.3-3.7281h-1.126l-3.191 3.6335h-.013v-3.6335h-.992v7.6239h.992v-3.6206h.013l3.165 3.6206zm12.16-7.6282h-.904l-1.33 3.7754c-.192.5633-.448 1.2427-.618 1.8748h-.026c-.182-.645-.387-1.3158-.578-1.8748l-1.331-3.7754h-.856l-1.304 3.7754c-.192.5719-.422 1.2298-.605 1.8748h-.026c-.169-.6579-.422-1.3158-.617-1.8748l-1.318-3.7754h-1.004l2.717 7.7443h.353l1.487-4.2441c.217-.6321.447-1.29.686-2.1285h.022c.244.8385.483 1.4921.7 2.1285l1.474 4.2441h.339l2.731-7.7443zm8 7.6282-3.226-7.7314h-.361l-3.226 7.7314h.979l.847-2.0554h3.131l.856 2.0554h1.005zm-2.2-2.8466h-2.452l.848-2.1027c.122-.2967.278-.6923.374-1.0535h.022c.108.3569.243.7525.361 1.0535zm8.979 2.8466v-.8471h-3.492v-6.7768h-.991v7.6239zm3.204 0v-7.6239h-.991v7.6239zm8.326-6.7768v-.8471h-6.113v.8471h2.561v6.7768h.991v-6.7768zm6.609 6.7768v-.8471h-3.531v-2.5585h2.574v-.8471h-2.574v-2.5241h3.096v-.8471h-4.087v7.6239zm3.204 0v-7.6239h-.991v7.6239zm8.326-6.7768v-.8471h-6.117v.8471h2.561v6.7768h.991v-6.7768h2.561z" fill="#76b158"/></g></svg>